<mxfile host="www.draw.io" modified="2019-11-04T06:08:07.331Z" agent="Mozilla/5.0 (Macintosh; Intel Mac OS X 10_15_0) AppleWebKit/537.36 (KHTML, like Gecko) Chrome/78.0.3904.70 Safari/537.36" etag="3sjWQKq4PQf0e32A-VjR" version="12.1.9" type="github" pages="1">
  <diagram id="yCnBRt5ZxJssyIiYSbIe" name="Page-1">
    <mxGraphModel dx="2052" dy="984" grid="1" gridSize="10" guides="1" tooltips="1" connect="1" arrows="1" fold="1" page="1" pageScale="1" pageWidth="827" pageHeight="1169" math="0" shadow="0">
      <root>
        <mxCell id="0"/>
        <mxCell id="1" parent="0"/>
        <mxCell id="Dnrcrz0dpH4ZOHUbm57b-2" value="CDN" style="rounded=0;whiteSpace=wrap;html=1;" parent="1" vertex="1">
          <mxGeometry x="320" y="60" width="120" height="70" as="geometry"/>
        </mxCell>
        <mxCell id="Dnrcrz0dpH4ZOHUbm57b-11" style="edgeStyle=orthogonalEdgeStyle;rounded=0;orthogonalLoop=1;jettySize=auto;html=1;" parent="1" source="Dnrcrz0dpH4ZOHUbm57b-5" target="Dnrcrz0dpH4ZOHUbm57b-7" edge="1">
          <mxGeometry relative="1" as="geometry"/>
        </mxCell>
        <mxCell id="Dnrcrz0dpH4ZOHUbm57b-5" value="负载均衡" style="rounded=0;whiteSpace=wrap;html=1;" parent="1" vertex="1">
          <mxGeometry x="320" y="190" width="120" height="40" as="geometry"/>
        </mxCell>
        <mxCell id="Dnrcrz0dpH4ZOHUbm57b-6" style="edgeStyle=orthogonalEdgeStyle;rounded=0;orthogonalLoop=1;jettySize=auto;html=1;" parent="1" source="Dnrcrz0dpH4ZOHUbm57b-2" target="Dnrcrz0dpH4ZOHUbm57b-5" edge="1">
          <mxGeometry relative="1" as="geometry">
            <mxPoint x="380" y="290" as="targetPoint"/>
            <mxPoint x="380" y="130" as="sourcePoint"/>
          </mxGeometry>
        </mxCell>
        <mxCell id="px2nRJegQgitWIK7hjpx-2" style="edgeStyle=orthogonalEdgeStyle;rounded=0;orthogonalLoop=1;jettySize=auto;html=1;entryX=0.5;entryY=0;entryDx=0;entryDy=0;" edge="1" parent="1" source="Dnrcrz0dpH4ZOHUbm57b-7" target="px2nRJegQgitWIK7hjpx-1">
          <mxGeometry relative="1" as="geometry">
            <Array as="points">
              <mxPoint x="380" y="715"/>
              <mxPoint x="381" y="715"/>
            </Array>
          </mxGeometry>
        </mxCell>
        <mxCell id="Dnrcrz0dpH4ZOHUbm57b-7" value="弹性伸缩实例组 （实例上限需要预估 数据库/redis 压力）" style="rounded=0;whiteSpace=wrap;html=1;align=center;" parent="1" vertex="1">
          <mxGeometry x="100" y="320" width="560" height="340" as="geometry"/>
        </mxCell>
        <mxCell id="Dnrcrz0dpH4ZOHUbm57b-8" value="API 实例1" style="rounded=0;whiteSpace=wrap;html=1;" parent="1" vertex="1">
          <mxGeometry x="160" y="584" width="120" height="56" as="geometry"/>
        </mxCell>
        <mxCell id="Dnrcrz0dpH4ZOHUbm57b-9" value="API 实例2" style="rounded=0;whiteSpace=wrap;html=1;" parent="1" vertex="1">
          <mxGeometry x="320" y="584" width="120" height="60" as="geometry"/>
        </mxCell>
        <mxCell id="Dnrcrz0dpH4ZOHUbm57b-10" value="....." style="rounded=0;whiteSpace=wrap;html=1;" parent="1" vertex="1">
          <mxGeometry x="480" y="584" width="120" height="60" as="geometry"/>
        </mxCell>
        <mxCell id="Dnrcrz0dpH4ZOHUbm57b-12" value="网关(限流/日志/缓存)" style="rounded=0;whiteSpace=wrap;html=1;" parent="1" vertex="1">
          <mxGeometry x="160" y="550" width="120" height="30" as="geometry"/>
        </mxCell>
        <mxCell id="Dnrcrz0dpH4ZOHUbm57b-14" value="网关(限流/日志/缓存)" style="rounded=0;whiteSpace=wrap;html=1;" parent="1" vertex="1">
          <mxGeometry x="320" y="550" width="120" height="30" as="geometry"/>
        </mxCell>
        <mxCell id="Dnrcrz0dpH4ZOHUbm57b-15" value="网关(限流/日志/缓存)" style="rounded=0;whiteSpace=wrap;html=1;" parent="1" vertex="1">
          <mxGeometry x="480" y="550" width="120" height="30" as="geometry"/>
        </mxCell>
        <mxCell id="px2nRJegQgitWIK7hjpx-7" style="edgeStyle=orthogonalEdgeStyle;rounded=0;orthogonalLoop=1;jettySize=auto;html=1;" edge="1" parent="1" source="px2nRJegQgitWIK7hjpx-1" target="px2nRJegQgitWIK7hjpx-4">
          <mxGeometry relative="1" as="geometry"/>
        </mxCell>
        <mxCell id="px2nRJegQgitWIK7hjpx-1" value="AI 识别服务（函数云计算）" style="rounded=0;whiteSpace=wrap;html=1;" vertex="1" parent="1">
          <mxGeometry x="267.5" y="770" width="225" height="100" as="geometry"/>
        </mxCell>
        <mxCell id="px2nRJegQgitWIK7hjpx-4" value="图像画框/上传OSS(函数云计算)" style="rounded=0;whiteSpace=wrap;html=1;" vertex="1" parent="1">
          <mxGeometry x="140" y="990" width="200" height="60" as="geometry"/>
        </mxCell>
        <mxCell id="px2nRJegQgitWIK7hjpx-8" value="consume" style="text;html=1;strokeColor=none;fillColor=none;align=center;verticalAlign=middle;whiteSpace=wrap;rounded=0;" vertex="1" parent="1">
          <mxGeometry x="290" y="930" width="40" height="20" as="geometry"/>
        </mxCell>
        <mxCell id="px2nRJegQgitWIK7hjpx-9" style="edgeStyle=orthogonalEdgeStyle;rounded=0;orthogonalLoop=1;jettySize=auto;html=1;exitX=0.5;exitY=1;exitDx=0;exitDy=0;entryX=0.25;entryY=1;entryDx=0;entryDy=0;" edge="1" parent="1" source="px2nRJegQgitWIK7hjpx-8" target="px2nRJegQgitWIK7hjpx-8">
          <mxGeometry relative="1" as="geometry"/>
        </mxCell>
      </root>
    </mxGraphModel>
  </diagram>
</mxfile>
